HIERARCHY
ROOT pelvis
{
  OFFSET 0 100 0
  CHANNELS 6 Xposition Yposition Zposition Zrotation Xrotation Yrotation
  JOINT pelvis_right_femur
  {
    OFFSET -10.78128 -3.44521 -0.5502486
    CHANNELS 3 Zrotation Xrotation Yrotation
    JOINT right_femur_tibia
    {
      OFFSET -0.8047443 -44.0398 -0.1307829
      CHANNELS 3 Zrotation Xrotation Yrotation
      JOINT right_tibia_foot
      {
        OFFSET 3.006224 -47.83518 -5
        CHANNELS 3 Zrotation Xrotation Yrotation
        End Site
        {
          OFFSET 0 -5 15
        }
      }
    }
  }
  JOINT pelvis_left_femur
  {
    OFFSET 10.78128 -3.44521 -0.5502486
    CHANNELS 3 Zrotation Xrotation Yrotation
    JOINT left_femur_tibia
    {
      OFFSET 0.8047443 -44.0398 -0.1307829
      CHANNELS 3 Zrotation Xrotation Yrotation
      JOINT left_tibia_foot
      {
        OFFSET -4.370144 -48.10324 -4.275266
        CHANNELS 3 Zrotation Xrotation Yrotation
        End Site
        {
          OFFSET 0 -5 15
        }
      }
    }
  }
  JOINT pelvis_spine1
  {
    OFFSET 0 6.468898 -3.129235
    CHANNELS 3 Zrotation Xrotation Yrotation
    JOINT spine1
    {
      OFFSET 0 23.15396 4.99043
      CHANNELS 3 Zrotation Xrotation Yrotation
      JOINT spine2
      {
        OFFSET 0 20.79997 -5.064912
        CHANNELS 3 Zrotation Xrotation Yrotation
        JOINT neck
        {
          OFFSET 0 14.38658 9.616178
          CHANNELS 3 Zrotation Xrotation Yrotation
          End Site
          {
            OFFSET 0 20 0
          }
        }
      }
      JOINT right_manubrium
      {
        OFFSET -5.722621 16.35077 3.967754
        CHANNELS 3 Zrotation Xrotation Yrotation
        JOINT right_clavicle
        {
          OFFSET -13.16364 1.694482 -4.693211
          CHANNELS 3 Zrotation Xrotation Yrotation
          JOINT right_humerus
          {
            OFFSET -28.5034 -0.3100689 -2.792744
            CHANNELS 3 Zrotation Xrotation Yrotation
            JOINT right_radius
            {
              OFFSET -25.15693 0.02248979 -1.271978
              CHANNELS 3 Zrotation Xrotation Yrotation
              End Site
              {
                OFFSET -15 0 0
              }
            }
          }
        }
      }
      JOINT left_manubrium
      {
        OFFSET 5.722621 16.35077 3.967754
        CHANNELS 3 Zrotation Xrotation Yrotation
        JOINT left_clavicle
        {
          OFFSET 13.16364 1.694482 -4.693211
          CHANNELS 3 Zrotation Xrotation Yrotation
          JOINT left_humerus
          {
            OFFSET 29.39168 -1.063119 -2.237045
            CHANNELS 3 Zrotation Xrotation Yrotation
            JOINT left_radius
            {
              OFFSET 24.59957 -0.9528479 0.9047498
              CHANNELS 3 Zrotation Xrotation Yrotation
              End Site
              {
                OFFSET 15 -0 -0
              }
            }
          }
        }
      }
    }
  }
}
MOTION
Frames: 21
Frame Time: 0.0416666666667
0 103.5113 0 0.2935287 -0.6665612 -0.08382131 4.63201 -18.6954 10.56345 -0 38.76028 -0 -5.491346 -15.76374 -3.516792 -6.703455 10.58587 -23.87835 -0 6.138624 -0 9.333253 -16.89107 27.5039 -3.232164 -3.106291 4.623972 2.50832 9.525285 -7.361549 1.729865 21.94954 6.824782 2.901681 -25.38264 10.16715 6.28666 -20.14208 11.57707 85.36691 35.13825 -18.25133 -0 0 16.69588 -6.440706 8.589686 4.453652 5.432621 -18.81887 -1.594732 -94.76871 27.42948 23.28681 0 0 -15.14509 7.905457 17.25013 5.66258
0.3239682 103.4241 1.502426 0.2789778 -0.7977952 -0.1601523 4.558637 -18.70868 10.33725 -0 38.70711 -0 -5.584904 -15.45795 -3.490217 -6.656894 10.70262 -23.70727 -0 6.128655 -0 9.112643 -16.99036 27.30063 -3.195695 -3.055857 4.55532 2.473097 9.535212 -7.348126 1.726615 21.9999 6.822668 2.888989 -25.33142 10.14456 6.147516 -20.10604 11.54539 85.50356 34.85018 -18.27823 -0 0 16.55768 -6.651563 8.56016 4.53474 5.436895 -18.89507 -1.669909 -94.60757 27.42871 23.06003 0 0 -15.23984 7.871818 17.25866 5.668938
0.634819 103.0728 3.502084 -0.008241242 0.6153645 -0.09627482 5.260585 -23.38438 9.152501 -0 32.14938 -0 -5.489006 -13.8552 -2.921946 -6.578397 11.42144 -22.26603 -0 5.817236 -0 8.557463 -19.07612 25.87639 -3.080644 -2.579248 4.620557 2.720858 9.218881 -7.534898 1.758335 21.51287 6.953639 3.016926 -25.92975 10.29171 5.741062 -19.57253 11.28065 85.94919 34.80104 -19.12815 -0 0 15.59751 -6.585963 8.521788 4.321628 6.372186 -19.85691 -1.217881 -93.36427 26.52215 21.22202 0 0 -17.54635 9.542428 16.55464 3.85093
0.9029117 102.4654 6.017221 -0.3349329 1.176381 0.1081575 5.607872 -26.49069 7.794079 -0 27.44541 -0 -5.811552 -11.65637 -2.568616 -6.301688 12.50119 -20.73171 -0 6.129386 -0 6.865233 -20.90314 24.00091 -2.79709 -2.111802 4.377163 2.799778 8.964065 -7.667114 1.771651 21.33408 7.053795 3.079304 -26.21947 10.32444 4.980216 -19.03692 10.97378 86.78535 33.73429 -19.98113 -0 0 14.40997 -7.091846 8.405247 4.3024 6.962174 -20.74235 -1.126326 -92.33793 26.38919 19.5562 0 0 -19.43616 9.892654 16.26237 3.414992
1.161482 101.7543 8.920887 -0.6344911 2.298909 0.4288482 6.331897 -29.38406 7.415698 -0 23.43025 -0 -5.810709 -10.10231 -2.212092 -6.209091 13.05778 -19.78924 -0 6.57607 -0 6.337518 -21.94831 22.96334 -2.649112 -1.917174 4.351382 3.026241 8.82626 -7.878861 1.753292 20.88105 7.202494 3.215513 -26.73715 10.4219 4.841777 -18.70456 10.88892 87.13685 34.01256 -20.72757 -0 0 13.69266 -7.001021 8.554705 4.207592 7.459141 -21.33197 -0.7933935 -91.77701 25.84301 18.76914 0 0 -21.0285 10.59901 15.66832 2.67931
1.393776 100.933 12.34863 -1.075311 3.107051 0.8818518 7.029949 -31.94061 6.802006 -0 19.70703 -0 -6.136193 -7.890642 -1.904041 -5.923906 13.95906 -18.51986 -0 7.774596 -0 4.784387 -22.95317 21.21349 -2.291486 -1.646633 4.096947 3.172658 8.665437 -8.07817 1.730445 20.53335 7.35955 3.330837 -27.13691 10.47895 4.428678 -18.23565 10.72309 87.79121 33.6543 -21.57577 -0 0 12.64778 -7.271545 8.700367 4.210084 7.842901 -21.97219 -0.6216373 -91.15324 25.62544 17.81233 0 0 -22.59172 10.73388 15.21511 2.541866
1.609643 100.0951 16.32565 -1.586223 3.810968 1.452566 7.801521 -33.84046 6.417578 -0 16.91246 -0 -6.577725 -5.702369 -1.628254 -5.57775 14.75378 -17.32718 -0 9.636291 -0 3.075203 -23.34859 19.36022 -1.830125 -1.451516 3.776842 3.289687 8.562071 -8.270595 1.681797 20.19075 7.531316 3.4475 -27.46887 10.51183 4.108537 -17.7802 10.60473 88.40726 33.41642 -22.34069 -0 0 11.64361 -7.599985 8.951367 4.300625 8.049352 -22.45677 -0.5144432 -90.66723 25.41358 17.13248 0 0 -23.81601 10.66417 14.73956 2.642395
1.816943 99.34651 20.92277 -2.207065 4.314593 2.118166 8.618532 -34.88029 6.140994 -0 15.12741 -0 -7.246905 -3.584797 -1.390076 -5.094805 15.42832 -16.10277 -0 12.69152 -0 0.8721211 -22.93535 17.13107 -1.176051 -1.299273 3.341051 3.343056 8.48796 -8.442751 1.594419 19.89955 7.716397 3.558868 -27.65232 10.48566 3.844448 -17.26178 10.50109 89.02741 33.20194 -23.01632 -0 0 10.59354 -8.063358 9.306681 4.493667 8.032236 -22.76894 -0.5163801 -90.28449 25.29884 16.66355 0 0 -24.59353 10.27858 14.2708 3.103715
2.034995 98.83335 26.1582 -2.875589 4.555023 2.813222 9.374863 -34.60284 5.966721 -0 14.69516 -0 -8.105305 -2.011389 -1.192392 -4.505922 15.65779 -14.94376 -0 17.29734 -0 -1.538696 -21.28677 14.72228 -0.3500949 -1.232663 2.867635 3.317043 8.482903 -8.574181 1.438705 19.69353 7.900539 3.656798 -27.60953 10.35031 3.751882 -16.72636 10.45647 89.55231 33.22228 -23.50884 -0 0 9.619582 -8.636467 9.77337 4.825702 7.726259 -22.8265 -0.6450827 -90.04251 25.19659 16.53298 0 0 -24.72561 9.660478 13.76471 3.845209
2.290014 98.72836 31.97585 -3.484411 4.44859 3.420246 9.892725 -32.56213 5.791709 -0 15.63655 -0 -9.081394 -1.504719 -1.051392 -3.866999 15.00938 -13.89404 -0 23.96508 -0 -3.852656 -18.10299 12.36498 0.5881022 -1.261665 2.493788 3.197456 8.590561 -8.637657 1.188479 19.62788 8.056592 3.732256 -27.26414 10.04312 3.916961 -16.2268 10.51237 89.91006 33.63463 -23.76435 -0 0 8.828401 -9.307127 10.33455 5.315454 7.100845 -22.60644 -0.9039153 -89.97302 25.07254 16.84141 0 0 -24.11171 8.866674 13.20655 4.825298
2.59814 99.16246 38.18961 -3.810662 3.835861 3.764978 9.911845 -28.56756 5.440431 -0 17.31954 -0 -10.00834 -2.467181 -1.022273 -3.320226 13.03862 -12.94456 -0 32.89555 -0 -5.631106 -13.65427 10.4784 1.429967 -1.326737 2.441542 2.979111 8.863972 -8.585727 0.8710808 19.80341 8.107379 3.765845 -26.55529 9.519791 4.306658 -15.84614 10.68962 90.0806 34.37202 -23.759 -0 0 8.285026 -10.08382 10.90607 5.905258 6.235279 -22.2244 -1.275798 -90.03258 24.91151 17.48755 0 0 -22.90041 8.032734 12.68165 5.873758
2.93104 100.132 44.50182 -3.583608 2.496173 3.687278 9.28613 -23.00642 4.817826 -0 18.41084 -0 -10.6958 -4.659778 -1.20135 -3.018725 9.609562 -11.97039 -0 43.51308 -0 -6.568376 -9.107483 9.541821 1.838421 -1.263541 2.884778 2.664346 9.317134 -8.349287 0.6213674 20.33631 7.917119 3.734993 -25.45055 8.804832 4.673203 -15.6329 10.93262 90.12261 34.98648 -23.46422 -0 0 7.913545 -11.00022 11.34324 6.415586 5.350842 -21.92495 -1.726922 -90.05642 24.72354 18.0073 0 0 -21.49972 7.362732 12.37947 6.644103
3.209017 101.4612 50.61346 -2.714785 0.3660125 3.187594 8.177888 -16.68096 4.069809 -0 17.87893 -0 -11.01791 -7.113038 -1.625618 -2.952426 4.963073 -10.83302 -0 53.88133 -0 -6.641828 -5.941373 9.912526 1.574135 -0.9120694 3.776451 2.251292 9.886836 -7.859022 0.6168832 21.21943 7.385756 3.636652 -24.00219 8.012687 4.687223 -15.62955 11.13764 90.0271 34.93393 -22.69921 -0 0 7.701812 -12.08987 11.52889 6.702388 4.700908 -21.83122 -2.209057 -89.94876 24.48038 17.99762 0 0 -20.20337 6.999345 12.38741 6.824389
3.372006 102.8772 56.34509 -1.505336 -2.077891 2.467122 6.995353 -10.26093 3.469632 -0 15.97092 -0 -10.92192 -8.916529 -2.072087 -2.871504 -0.7177673 -9.535575 -0 61.07322 -0 -6.073901 -4.661014 11.45704 0.7931956 -0.3030193 4.89496 1.74496 10.47012 -7.119442 0.8640353 22.1641 6.630993 3.512598 -22.48946 7.292634 4.295308 -16.00143 11.29596 89.56116 34.25613 -21.17258 -0 0 8.063992 -13.39229 11.54566 6.960262 4.388378 -21.7674 -2.623376 -89.978 24.12376 17.95928 0 0 -18.94375 6.798121 12.48282 6.645537
3.451174 104.0874 61.68767 -0.4307922 -4.007075 1.732508 6.070015 -4.162939 3.107274 -0 13.53155 -0 -10.42534 -9.916504 -2.151664 -2.455818 -7.270558 -8.14132 -0 62.66718 -0 -5.156604 -4.688919 13.50329 -0.08171349 0.3528943 6.007984 1.194429 10.9726 -6.264572 1.15998 22.77402 5.932781 3.39121 -21.33288 6.741296 3.721301 -16.94611 11.48692 88.48093 33.5232 -18.79597 -0 0 9.51035 -14.96821 11.63759 7.630277 4.342557 -21.51619 -2.843875 -90.45077 23.65278 18.81618 0 0 -17.67791 6.461417 12.36473 6.698025
3.539504 104.8148 66.78572 0.2117403 -4.981202 1.065272 5.493395 1.374063 2.849749 -0 11.10533 -0 -9.613487 -10.62962 -1.743432 -1.509455 -13.98148 -6.64317 -0 57.88748 -0 -4.17145 -5.283617 15.39618 -0.7233051 0.8576544 6.872458 0.6907767 11.26027 -5.47421 1.323309 22.91354 5.451301 3.200901 -20.7312 6.387034 3.087653 -18.41415 11.69171 86.81894 32.97793 -15.73241 -0 0 12.00511 -16.7918 11.87897 8.952256 4.428659 -20.98488 -2.80674 -91.24912 23.1384 20.63865 0 0 -16.46396 5.866775 11.94717 7.206187
3.71578 104.8644 71.85516 0.3691885 -5.203738 0.4651274 5.208084 6.356642 2.558713 -0 9.04339 -0 -8.582404 -11.81632 -1.118779 -0.1005405 -19.70608 -5.122761 -0 47.95888 -0 -3.407134 -5.937381 16.9078 -1.006723 1.135692 7.283749 0.3190834 11.16096 -4.837984 1.340233 22.77502 5.147477 2.833338 -20.53965 6.233341 2.312819 -20.07033 11.7551 84.9075 32.25657 -12.29582 -0 0 14.99364 -18.62423 12.01896 10.73787 4.535133 -20.10434 -2.53711 -92.07425 22.71553 22.68987 0 0 -15.08342 5.063589 11.33459 7.959918
4.006841 104.1976 77.08226 0.1662461 -5.168934 -0.1106965 5.082841 10.94208 2.199076 -0 7.67702 -0 -7.453692 -13.87452 -0.6266448 1.375562 -23.64721 -3.90365 -0 35.78743 -0 -3.085212 -6.370051 18.14742 -0.9772369 1.212198 7.241213 0.1030119 10.60518 -4.317786 1.312808 22.66144 4.920969 2.297291 -20.47125 6.264081 1.31926 -21.50918 11.53168 83.21609 30.91839 -8.943706 -0 0 17.82206 -20.10414 11.71378 12.50286 4.616488 -18.86558 -2.124699 -92.83981 22.52359 24.30924 0 0 -13.11321 4.138036 10.70976 8.703467
4.401537 102.9429 82.5863 -0.1829434 -5.215986 -0.7229845 4.934338 15.19076 1.796715 -0 7.256765 -0 -6.398847 -16.42766 -0.3845963 2.407742 -25.77912 -3.359434 -0 24.43735 -0 -3.241538 -6.541243 19.26291 -0.7968086 1.142296 6.954418 -0.00741696 9.712187 -3.820646 1.344135 22.74861 4.732855 1.744959 -20.33932 6.4378 0.1853225 -22.47593 11.0125 82.07315 28.95951 -6.113401 -0 0 20.05796 -21.03176 10.83862 13.8404 4.690361 -17.41031 -1.671476 -93.64551 22.59919 25.3527 0 0 -10.40024 3.18041 10.21714 9.358285
4.883763 101.3485 88.44269 -0.4686637 -5.374829 -1.40363 4.556485 18.93967 1.398177 -0 7.986211 -0 -5.595082 -18.49264 -0.269422 2.65816 -26.52511 -3.651373 -0 15.84169 -0 -3.712893 -6.572031 20.25738 -0.6667854 0.9511077 6.676389 -0.09358769 8.724733 -3.292463 1.475728 23.01954 4.620184 1.369734 -20.13231 6.702778 -0.87224 -22.90147 10.31536 81.50977 26.84101 -4.048172 -0 0 21.50707 -21.50542 9.557516 14.6554 4.788339 -15.9929 -1.247499 -94.52498 22.85558 25.99163 0 0 -7.277436 2.316806 9.901872 9.958093
5.448346 99.73451 94.70255 -0.5121646 -5.53391 -2.111888 3.754743 21.82779 1.080465 -0 10.22757 -0 -5.194554 -18.79424 -0.09660597 1.995435 -26.22423 -4.724467 -0 10.94924 -0 -4.201411 -6.626721 21.03453 -0.7841546 0.6267222 6.569952 -0.2333309 7.925758 -2.748585 1.702359 23.35573 4.642224 1.327502 -19.93125 7.005885 -1.589538 -22.79771 9.610678 81.3893 25.20786 -2.860755 -0 0 22.02552 -21.79776 8.198919 15.05635 4.915127 -14.89598 -0.9103266 -95.31843 23.13036 26.35236 0 0 -4.381744 1.737981 9.75312 10.47649
